<?xml version="1.0" encoding="iso-8859-1"?>
<!-- Uploaded to: SVG Repo, www.svgrepo.com, Generator: SVG Repo Mixer Tools -->
<svg fill="#000000" height="800px" width="800px" version="1.1" id="Layer_1" xmlns="http://www.w3.org/2000/svg" xmlns:xlink="http://www.w3.org/1999/xlink" 
	 viewBox="0 0 512 512" xml:space="preserve">
<g>
	<g>
		<path d="M485.355,264.314v-163.53h-68.68v-15.92c16.478-6.324,28.21-22.303,28.21-40.98C444.885,19.687,425.199,0,401.002,0
			s-43.885,19.687-43.885,43.885c0,18.678,11.733,34.656,28.211,40.98v15.92H126.672v-15.92
			c16.478-6.324,28.211-22.303,28.211-40.98C154.884,19.687,135.197,0,110.998,0S67.115,19.687,67.115,43.885
			c0,18.677,11.732,34.656,28.21,40.98v15.92h-68.68v163.53h64.72v216.339h-23.51V512h78.367v-31.347h-23.51V264.314h266.575
			v216.339h-23.51V512h78.367v-31.347h-23.51V264.314H485.355z M401.002,31.347c6.913,0,12.537,5.625,12.537,12.538
			c0,6.913-5.624,12.538-12.537,12.538s-12.538-5.625-12.538-12.538C388.464,36.972,394.087,31.347,401.002,31.347z M110.998,31.347
			c6.913,0,12.538,5.625,12.538,12.538c0,6.913-5.625,12.538-12.538,12.538s-12.537-5.625-12.537-12.538
			C98.462,36.972,104.085,31.347,110.998,31.347z M60.329,232.967h-2.337V132.132h82.047L60.329,232.967z M100.287,232.967
			l79.71-100.836h37.95l-79.71,100.836H100.287z M178.196,232.967l79.71-100.836h75.44l-79.71,100.836H178.196z M293.593,232.967
			l79.71-100.836h37.95l-79.71,100.836H293.593z M371.502,232.967l79.71-100.836h2.796v100.836H371.502z"/>
	</g>
</g>
</svg>